<svg width="150" height="150" viewBox="0 0 150 150" fill="none" xmlns="http://www.w3.org/2000/svg">
<path d="M117.254 32.739C122.97 32.739 128.252 35.7886 131.11 40.739L155.09 82.273C157.948 87.2234 157.948 93.3226 155.09 98.273L131.11 139.807C128.252 144.757 122.97 147.807 117.254 147.807H69.2942C63.5779 147.807 58.2959 144.757 55.4377 139.807L31.458 98.273C28.5999 93.3226 28.5999 87.2234 31.458 82.273L55.4377 40.739C58.2959 35.7886 63.5779 32.739 69.2941 32.739L117.254 32.739Z" fill="white"/>
<path d="M56 79.1441L68.9547 117.06" stroke="#DC2828" stroke-width="10" stroke-linecap="round"/>
<path d="M72 69L87.3823 116.575" stroke="#DB7706" stroke-width="10" stroke-linecap="round"/>
<path d="M90 60L108.459 117.09" stroke="#2463EB" stroke-width="10" stroke-linecap="round"/>
<path d="M108 50L129.535 116.605" stroke="#16A249" stroke-width="10" stroke-linecap="round"/>
</svg>
