<svg width="154" height="145" viewBox="0 0 154 145" fill="none" xmlns="http://www.w3.org/2000/svg">
<path d="M115.327 22.9058C120.849 24.3853 125.162 28.6981 126.641 34.2195L139.054 80.5447C140.533 86.0662 138.955 91.9576 134.913 95.9996L101 129.912C96.9584 133.954 91.067 135.533 85.5456 134.053L39.2203 121.64C33.6989 120.161 29.3861 115.848 27.9066 110.327L15.4938 64.0013C14.0144 58.4799 15.5929 52.5885 19.6349 48.5465L53.5473 14.6341C57.5893 10.5921 63.4807 9.01354 69.0022 10.493L115.327 22.9058Z" fill="white"/>
<path fill-rule="evenodd" clip-rule="evenodd" d="M43.813 46.8797C46.5691 46.9534 48.9545 49.2501 49.1409 52.0095L51.8407 91.9864C52.0271 94.7459 49.9439 96.9231 47.1878 96.8495C44.4316 96.7758 42.0463 94.4791 41.8599 91.7196L39.1601 51.7427C38.9737 48.9833 41.0569 46.806 43.813 46.8797Z" fill="#DC2828"/>
<path fill-rule="evenodd" clip-rule="evenodd" d="M61.9763 41.2253C64.7351 41.3448 67.0855 43.6773 67.2261 46.4352L69.771 96.3703C69.9115 99.1282 67.789 101.267 65.0301 101.147C62.2713 101.028 59.9209 98.6954 59.7803 95.9376L57.2354 46.0024C57.0949 43.2446 59.2174 41.1058 61.9763 41.2253Z" fill="#DB7706"/>
<path fill-rule="evenodd" clip-rule="evenodd" d="M81.6923 37.1907C84.4511 37.3102 86.8015 39.6428 86.9421 42.4006L89.9959 102.323C90.1365 105.081 88.0139 107.219 85.2551 107.1C82.4963 106.98 80.1459 104.648 80.0053 101.89L76.9514 41.9679C76.8109 39.21 78.9334 37.0712 81.6923 37.1907Z" fill="#2463EB"/>
<path fill-rule="evenodd" clip-rule="evenodd" d="M101.667 32.1902C104.426 32.3097 106.776 34.6422 106.917 37.4001L110.48 107.309C110.62 110.067 108.498 112.206 105.739 112.086C102.98 111.967 100.63 109.634 100.489 106.877L96.9263 36.9673C96.7858 34.2095 98.9083 32.0707 101.667 32.1902Z" fill="#16A249"/>
</svg>
